<svg width="32" height="32" viewBox="0 0 32 32" fill="none" xmlns="http://www.w3.org/2000/svg">
  <path d="M16 28C22.6274 28 28 22.6274 28 16C28 9.37258 22.6274 4 16 4C9.37258 4 4 9.37258 4 16C4 18.5264 4.78178 20.8772 6.11451 22.8506C6.34164 23.1911 6.43158 23.6096 6.33037 24.0097L5.16164 28.3367C5.01864 28.8902 5.51035 29.4119 6.07159 29.3027L10.9596 28.4073C11.2354 28.3452 11.5209 28.3742 11.7817 28.4899C13.0675 28.9937 14.4929 29.2727 16 29.2727C16.4683 29.2727 16.9293 29.2471 17.3812 29.1975" stroke="#4CAF50" stroke-width="2" stroke-linecap="round"/>
  <path d="M12 16H20M12 12H16" stroke="#4CAF50" stroke-width="2" stroke-linecap="round"/>
</svg> 