<svg width="68" height="24" viewBox="0 0 68 24" fill="none" xmlns="http://www.w3.org/2000/svg">
<path d="M12 21C16.9706 21 21 16.9706 21 12C21 7.02944 16.9706 3 12 3C7.02944 3 3 7.02944 3 12C3 16.9706 7.02944 21 12 21Z" stroke="white" stroke-width="1.5" stroke-miterlimit="10" stroke-linecap="round"/>
<path d="M12 8.21002L8.43328 11.202M12 8.21002L15.5667 11.202M12 8.21002V5.51143M8.43328 11.202L9.375 14.9999M8.43328 11.202L5.955 10.152M9.375 14.9999H14.625M9.375 14.9999L8.0625 17.2499M14.625 14.9999L15.5667 11.202M14.625 14.9999L15.9375 17.2499L14.625 20.578M15.5667 11.202L18.045 10.152M18.045 10.152L19.2534 6.71799M18.045 10.152L20.9531 12.6547M5.955 10.152L4.74656 6.71799M5.955 10.152L3.04688 12.6547M12 5.51143L15 3.51268M12 5.51143L9 3.51221M19.2534 17.2499H16.0312M8.0625 17.2499L9.39234 20.6014M8.0625 17.2499H4.76391" stroke="white" stroke-width="1.5" stroke-linecap="round" stroke-linejoin="round"/>
<rect x="32" y="1" width="1" height="22" fill="white" fill-opacity="0.2"/>
<path d="M45.242 17.168C44.626 17.168 44.0987 17.0513 43.66 16.818C43.2213 16.5753 42.8713 16.2533 42.61 15.852C42.358 15.4413 42.204 14.9933 42.148 14.508H43.24C43.3333 15.0307 43.5573 15.4367 43.912 15.726C44.2667 16.006 44.7147 16.146 45.256 16.146C45.7507 16.146 46.1893 15.9967 46.572 15.698C46.9547 15.3993 47.2627 14.9467 47.496 14.34C47.7387 13.724 47.874 12.9447 47.902 12.002C47.902 11.974 47.902 11.946 47.902 11.918C47.902 11.89 47.902 11.862 47.902 11.834C47.762 12.1233 47.5567 12.394 47.286 12.646C47.0153 12.898 46.6933 13.0987 46.32 13.248C45.956 13.3973 45.5453 13.472 45.088 13.472C44.5373 13.472 44.0147 13.3413 43.52 13.08C43.0347 12.8187 42.638 12.4547 42.33 11.988C42.0313 11.512 41.882 10.9567 41.882 10.322C41.882 9.77133 42.0173 9.244 42.288 8.74C42.5587 8.236 42.946 7.82533 43.45 7.508C43.954 7.19067 44.5513 7.032 45.242 7.032C45.942 7.032 46.5347 7.16733 47.02 7.438C47.5053 7.69933 47.8927 8.054 48.182 8.502C48.4807 8.94067 48.6953 9.44 48.826 10C48.9567 10.56 49.022 11.1293 49.022 11.708C49.022 12.7813 48.8727 13.7287 48.574 14.55C48.2847 15.3713 47.8553 16.0153 47.286 16.482C46.726 16.9393 46.0447 17.168 45.242 17.168ZM45.326 12.45C45.7553 12.45 46.1427 12.352 46.488 12.156C46.8333 11.96 47.104 11.694 47.3 11.358C47.5053 11.022 47.608 10.6533 47.608 10.252C47.608 9.82267 47.5053 9.44467 47.3 9.118C47.104 8.79133 46.8333 8.53467 46.488 8.348C46.1427 8.16133 45.7553 8.068 45.326 8.068C44.8967 8.068 44.5093 8.166 44.164 8.362C43.828 8.54867 43.562 8.80533 43.366 9.132C43.17 9.45867 43.072 9.83667 43.072 10.266C43.072 10.7047 43.17 11.0873 43.366 11.414C43.562 11.7407 43.828 11.9973 44.164 12.184C44.5093 12.3613 44.8967 12.45 45.326 12.45ZM54.593 17.168C53.7343 17.168 52.9923 16.958 52.367 16.538C51.751 16.1087 51.2797 15.516 50.953 14.76C50.6263 13.9947 50.463 13.108 50.463 12.1C50.463 11.092 50.6263 10.21 50.953 9.454C51.2797 8.68867 51.751 8.096 52.367 7.676C52.9923 7.24667 53.7343 7.032 54.593 7.032C55.4517 7.032 56.1843 7.24667 56.791 7.676C57.407 8.096 57.8783 8.68867 58.205 9.454C58.5317 10.21 58.695 11.092 58.695 12.1C58.695 13.108 58.5317 13.9947 58.205 14.76C57.8783 15.516 57.407 16.1087 56.791 16.538C56.1843 16.958 55.4517 17.168 54.593 17.168ZM54.579 16.132C55.139 16.132 55.6383 15.9733 56.077 15.656C56.5157 15.3293 56.861 14.8673 57.113 14.27C57.365 13.6633 57.491 12.94 57.491 12.1C57.491 11.26 57.365 10.5413 57.113 9.944C56.861 9.33733 56.5157 8.87533 56.077 8.558C55.6383 8.24067 55.139 8.082 54.579 8.082C54.019 8.082 53.515 8.24067 53.067 8.558C52.6283 8.87533 52.283 9.33733 52.031 9.944C51.7883 10.5413 51.667 11.26 51.667 12.1C51.667 12.94 51.7883 13.6633 52.031 14.27C52.283 14.8673 52.6283 15.3293 53.067 15.656C53.515 15.9733 54.019 16.132 54.579 16.132ZM62.6793 15.992V9.888H63.7293V15.992H62.6793ZM60.0053 13.43V12.436H66.4033V13.43H60.0053Z" fill="white"/>
</svg>
